<svg width="298" height="18" viewBox="0 0 298 18" fill="none" xmlns="http://www.w3.org/2000/svg">
<path d="M18.432 16.584C18.576 16.8 18.792 16.896 19.032 16.92V17.136H13.104V16.92C13.488 16.896 13.704 16.728 13.488 16.392L9.57598 10.776H4.72798V16.152C4.72798 16.608 4.82398 16.848 5.35198 16.92V17.136H-1.70469e-05V16.92C0.527983 16.848 0.647983 16.608 0.647983 16.152V1.29599C0.647983 0.839986 0.527983 0.599986 -1.70469e-05 0.527986V0.311985H11.208C15.624 0.287986 18.048 2.80799 18.048 5.59199C18.048 7.72799 16.632 9.64799 13.992 10.416L18.432 16.584ZM4.72798 3.64799V7.53599H10.776C12.768 7.55999 13.728 6.74399 13.728 5.59199C13.728 4.46399 12.768 3.62399 10.776 3.64799H4.72798ZM20.2031 17.136V16.92C20.7311 16.848 20.8511 16.608 20.8511 16.152V1.29599C20.8511 0.839986 20.7311 0.599986 20.2031 0.527986V0.311985H31.4591C35.8751 0.287986 38.2991 2.80799 38.2991 5.59199C38.2991 8.39999 35.8751 10.824 31.4591 10.776H24.9311V16.152C24.9311 16.608 25.0271 16.848 25.5551 16.92V17.136H20.2031ZM24.9311 7.53599H31.0271C33.0191 7.55999 33.9791 6.74399 33.9791 5.59199C33.9791 4.46399 33.0191 3.62399 31.0271 3.64799H24.9311V7.53599ZM58.3226 16.584C58.4666 16.8 58.6826 16.896 58.9226 16.92V17.136H52.9946V16.92C53.3786 16.896 53.5946 16.728 53.3786 16.392L49.4666 10.776H44.6186V16.152C44.6186 16.608 44.7146 16.848 45.2426 16.92V17.136H39.8906V16.92C40.4186 16.848 40.5386 16.608 40.5386 16.152V1.29599C40.5386 0.839986 40.4186 0.599986 39.8906 0.527986V0.311985H51.0986C55.5146 0.287986 57.9386 2.80799 57.9386 5.59199C57.9386 7.72799 56.5226 9.64799 53.8826 10.416L58.3226 16.584ZM44.6186 3.64799V7.53599H50.6666C52.6586 7.55999 53.6186 6.74399 53.6186 5.59199C53.6186 4.46399 52.6586 3.62399 50.6666 3.64799H44.6186ZM80.3644 17.448C77.1244 17.448 73.6924 16.632 71.3644 15.288C71.0764 15.144 70.9084 15.336 70.7884 15.552L70.5724 15.456L72.3964 11.424L72.5884 11.496C72.4924 11.856 72.5164 12.024 72.8764 12.264C75.1084 13.536 77.6044 14.232 80.2924 14.232C82.6924 14.232 84.4204 13.68 84.4204 12.36C84.4204 10.824 82.1164 10.488 78.3724 10.056C74.1724 9.50399 71.7724 8.18399 71.7724 5.08799C71.7724 1.84799 75.0364 -1.4782e-05 79.6924 -1.4782e-05C82.4284 -1.4782e-05 85.3084 0.575985 87.8284 1.65599C88.0924 1.75199 88.2604 1.63199 88.4044 1.39199L88.5964 1.48799L86.8444 5.49599L86.6524 5.39999C86.7484 5.03999 86.7244 4.82399 86.3884 4.63199C84.5644 3.74399 81.7804 3.16799 79.6444 3.16799C77.5084 3.16799 76.0204 3.69599 76.0204 4.82399C76.0204 5.97599 77.1244 6.38399 79.9084 6.69599C85.7644 7.36799 88.8124 8.32799 88.8124 12.144C88.8124 15.696 85.3084 17.448 80.3644 17.448ZM90.4453 17.136V16.944C90.9013 16.896 90.9973 16.704 90.9973 16.296V3.55199C90.9973 3.14399 90.9013 2.92799 90.4453 2.87999V2.68798H100.477C104.293 2.68798 106.357 4.84799 106.357 7.24799C106.357 9.62399 104.293 11.688 100.477 11.688H94.7893V16.296C94.7893 16.704 94.8853 16.896 95.3413 16.944V17.136H90.4453ZM94.7893 8.85599H99.8533C101.557 8.87999 102.373 8.18399 102.373 7.24799C102.373 6.28799 101.557 5.59199 99.8533 5.59199H94.7893V8.85599ZM116.642 17.448C111.17 17.448 107.666 14.328 107.666 9.93599C107.666 5.51999 111.17 2.39999 116.642 2.39999C122.114 2.39999 125.642 5.51999 125.642 9.93599C125.642 14.352 122.114 17.448 116.642 17.448ZM116.642 14.28C119.45 14.28 121.562 12.504 121.562 9.93599C121.562 7.29599 119.45 5.54399 116.642 5.54399C113.858 5.54399 111.746 7.29599 111.746 9.93599C111.746 12.504 113.858 14.28 116.642 14.28ZM136.259 17.448C130.787 17.448 127.283 14.328 127.283 9.93599C127.283 5.51999 130.787 2.39999 136.259 2.39999C141.731 2.39999 145.259 5.51999 145.259 9.93599C145.259 14.352 141.731 17.448 136.259 17.448ZM136.259 14.28C139.067 14.28 141.179 12.504 141.179 9.93599C141.179 7.29599 139.067 5.54399 136.259 5.54399C133.475 5.54399 131.363 7.29599 131.363 9.93599C131.363 12.504 133.475 14.28 136.259 14.28ZM147.164 17.136V16.944C147.62 16.896 147.716 16.608 147.716 16.224V3.55199C147.716 3.14399 147.62 2.92799 147.164 2.87999V2.68798H152.06V2.87999C151.604 2.92799 151.508 3.14399 151.508 3.55199V13.968H160.964C161.372 13.968 161.564 13.872 161.636 13.416H161.804V17.136H147.164ZM178.867 17.136V16.92C179.395 16.848 179.515 16.608 179.515 16.152V3.67199H173.491C173.011 3.67199 172.771 3.79199 172.699 4.31999H172.483V0.311985H190.627V4.31999H190.411C190.339 3.79199 190.099 3.67199 189.643 3.67199H183.595V16.152C183.595 16.608 183.715 16.848 184.243 16.92V17.136H178.867ZM208.271 16.704C208.415 16.872 208.559 16.944 208.751 16.944V17.136H203.399V16.944C203.711 16.92 203.903 16.776 203.711 16.488L200.375 11.688H196.391V16.296C196.391 16.704 196.487 16.896 196.943 16.944V17.136H192.047V16.944C192.503 16.896 192.599 16.704 192.599 16.296V3.55199C192.599 3.14399 192.503 2.92799 192.047 2.87999V2.68798H202.055C205.847 2.68798 207.935 4.84799 207.935 7.24799C207.935 9.07199 206.711 10.704 204.455 11.376L208.271 16.704ZM196.391 5.59199V8.85599H201.407C203.111 8.87999 203.951 8.18399 203.951 7.24799C203.951 6.28799 203.111 5.59199 201.407 5.59199H196.391ZM227.882 16.704C227.954 16.872 228.122 16.944 228.338 16.944V17.136H223.13V16.944C223.466 16.92 223.658 16.776 223.538 16.464L222.266 13.704H214.682L213.434 16.368C213.314 16.728 213.434 16.92 213.842 16.944V17.136H208.85V16.944C209.066 16.944 209.234 16.872 209.33 16.704L215.642 3.33599C215.762 3.09599 215.666 2.95199 215.354 2.92799V2.73599H221.906V2.92799C221.522 2.95199 221.498 3.14399 221.618 3.43199L227.882 16.704ZM220.922 10.704L218.474 5.44799L216.026 10.704H220.922ZM237.303 17.448C231.687 17.448 228.111 14.448 228.111 9.91199C228.111 5.39999 231.639 2.39999 237.255 2.39999C239.655 2.39999 241.935 2.97599 243.567 3.83999C243.831 3.93599 243.999 3.81599 244.119 3.62399L244.287 3.69599L242.607 7.60799L242.439 7.53599C242.535 7.22399 242.511 7.07999 242.175 6.83999C241.023 6.14399 239.295 5.61599 237.471 5.61599C234.495 5.61599 232.143 7.31999 232.143 9.91199C232.143 12.528 234.543 14.232 237.519 14.232C239.367 14.232 241.143 13.704 242.247 13.008C242.583 12.768 242.607 12.6 242.511 12.288L242.703 12.216L244.359 16.104L244.215 16.2C244.071 16.032 243.903 15.864 243.663 15.984C241.959 16.896 239.655 17.448 237.303 17.448ZM262.898 16.752C263.018 16.872 263.21 16.944 263.378 16.944V17.136H257.666V16.944C258.002 16.92 258.218 16.8 258.026 16.536L253.202 10.536L250.25 12.888V16.296C250.25 16.68 250.346 16.896 250.802 16.944V17.136H245.906V16.944C246.362 16.896 246.458 16.68 246.458 16.296V3.55199C246.458 3.14399 246.362 2.92799 245.906 2.87999V2.68798H250.802V2.87999C250.346 2.92799 250.25 3.14399 250.25 3.55199V9.07199L257.162 3.38399C257.522 3.07199 257.378 2.92799 256.994 2.87999V2.68798H262.73V2.85599L255.938 8.32799L262.898 16.752ZM264.562 17.136V16.944C265.018 16.896 265.114 16.704 265.114 16.296V3.55199C265.114 3.14399 265.018 2.92799 264.562 2.87999V2.68798H278.986V6.31199H278.818C278.746 5.87999 278.554 5.75999 278.146 5.75999H268.906V8.30399H275.074C275.482 8.30399 275.698 8.18399 275.746 7.72799H275.938V11.856H275.746C275.698 11.4 275.482 11.304 275.074 11.304H268.906V14.064H278.146C278.554 14.064 278.746 13.968 278.818 13.512H278.986V17.136H264.562ZM296.958 16.704C297.102 16.872 297.246 16.944 297.438 16.944V17.136H292.086V16.944C292.398 16.92 292.59 16.776 292.398 16.488L289.062 11.688H285.078V16.296C285.078 16.704 285.174 16.896 285.63 16.944V17.136H280.734V16.944C281.19 16.896 281.286 16.704 281.286 16.296V3.55199C281.286 3.14399 281.19 2.92799 280.734 2.87999V2.68798H290.742C294.534 2.68798 296.622 4.84799 296.622 7.24799C296.622 9.07199 295.398 10.704 293.142 11.376L296.958 16.704ZM285.078 5.59199V8.85599H290.094C291.798 8.87999 292.638 8.18399 292.638 7.24799C292.638 6.28799 291.798 5.59199 290.094 5.59199H285.078Z" fill="white"/>
</svg>
