<svg width="16" height="10" viewBox="0 0 16 10" fill="none" xmlns="http://www.w3.org/2000/svg">
<path d="M0.990509 6.602C1.67251 3.327 4.52351 1 7.73051 1C10.9365 1 13.7875 3.327 14.4705 6.602C14.4976 6.73196 14.5751 6.84584 14.6862 6.91861C14.7972 6.99137 14.9326 7.01705 15.0625 6.99C15.1925 6.96295 15.3064 6.88538 15.3791 6.77436C15.4519 6.66334 15.4776 6.52796 15.4505 6.398C14.6735 2.673 11.4235 0 7.73051 0C4.03751 0 0.787509 2.673 0.0105056 6.398C-0.0165464 6.52796 0.00913458 6.66334 0.0818986 6.77436C0.154663 6.88538 0.26855 6.96295 0.398506 6.99C0.528459 7.01705 0.663839 6.99137 0.774859 6.91861C0.885889 6.84584 0.963459 6.73196 0.990509 6.602ZM7.72051 3C8.64877 3 9.539 3.36875 10.1954 4.02513C10.8518 4.6815 11.2205 5.57174 11.2205 6.5C11.2205 7.42826 10.8518 8.3185 10.1954 8.97487C9.539 9.6313 8.64877 10 7.72051 10C6.79225 10 5.90201 9.6313 5.24563 8.97487C4.58926 8.3185 4.22051 7.42826 4.22051 6.5C4.22051 5.57174 4.58926 4.6815 5.24563 4.02513C5.90201 3.36875 6.79225 3 7.72051 3Z" fill="black"/>
</svg>
